:FULLY-SPECIFIED
:FORCE-ALL-JOINTS-BE-3DOF
:DEGREES
2854
root -6.09106 13.2691 -28.8166 1240.9 -66.6288 -159.235
lfemur -65.6667 44.9767 -5.58231
ltibia 77.0644 0 0
lfoot -4.68243 -6.02695 0
ltoes -28.5101 0 0
rfemur -31.2325 -19.1983 22.4812
rtibia 88.9345 0 0
rfoot -41.2695 -28.4301 0
rtoes -14.0031 0 0
lowerback 15.7213 5.67196 0.904027
upperback -4.48796 8.03769 1.65386
thorax -13.9827 3.72544 -0.867756
lowerneck -2.51521 9.63381 2.20087
upperneck 9.08943 12.5423 2.09439
head 3.37155 6.33698 0.77143
lclavicle 2.83821e-14 -6.81484e-15 0
lhumerus 5.45355 12.3408 84.346
lradius 93.4015 0 0
lwrist -19.031 0 0
lhand -39.3502 388.193 0
lfingers 7.12502 0 0
lthumb -12.4776 -662.333 0
rclavicle -5.62384e-14 -1.09394e-14 0
rhumerus -59.0748 50.8455 -111.45
rradius 113.617 0 0
rwrist -83.7068 0 0
rhand 7.9901 -386.044 0
rfingers 7.12502 0 0
rthumb 32.9504 307.015 0
2855
root -6.09253 13.2651 -28.815 1240.78 -66.6527 -159.075
lfemur -65.7272 44.9741 -5.58521
ltibia 77.1112 0 0
lfoot -4.72632 -6.05176 0
ltoes -28.5769 0 0
rfemur -31.2434 -19.196 22.4951
rtibia 88.9707 0 0
rfoot -41.3002 -28.4481 0
rtoes -13.9862 0 0
lowerback 15.7069 5.6403 0.983034
upperback -4.49673 8.01236 1.66266
thorax -13.9742 3.70758 -0.893024
lowerneck -2.52307 9.63262 2.19849
upperneck 9.11441 12.5401 2.09344
head 3.38164 6.33572 0.772945
lclavicle 2.60077e-14 -8.41267e-15 0
lhumerus 5.49177 12.3482 84.3425
lradius 93.3738 0 0
lwrist -19.0369 0 0
lhand -39.3337 388.142 0
lfingers 7.12502 0 0
lthumb -12.4685 -662.369 0
rclavicle -5.55328e-14 -1.07089e-14 0
rhumerus -59.078 50.8531 -111.457
rradius 113.612 0 0
rwrist -83.6945 0 0
rhand 7.98251 -386.04 0
rfingers 7.12502 0 0
rthumb 32.9607 307.028 0
2856
root -6.09322 13.2624 -28.8137 1240.73 -66.7042 -158.979
lfemur -65.7772 44.9719 -5.58761
ltibia 77.1589 0 0
lfoot -4.77206 -6.07762 0
ltoes -28.6442 0 0
rfemur -31.2504 -19.1946 22.5038
rtibia 89.0047 0 0
rfoot -41.3304 -28.4658 0
rtoes -13.9671 0 0
lowerback 15.6969 5.6177 1.03436
upperback -4.51268 7.99174 1.65318
thorax -13.9778 3.69297 -0.925572
lowerneck -2.51992 9.62416 2.24297
upperneck 9.13048 12.5292 2.05396
head 3.39278 6.33016 0.753994
lclavicle 2.36998e-14 -9.96565e-15 0
lhumerus 5.52874 12.3553 84.339
lradius 93.3478 0 0
lwrist -19.0424 0 0
lhand -39.3182 388.095 0
lfingers 7.12502 0 0
lthumb -12.4616 -662.396 0
rclavicle -5.45806e-14 -1.03978e-14 0
rhumerus -59.0823 50.8632 -111.466
rradius 113.607 0 0
rwrist -83.6853 0 0
rhand 7.97395 -386.036 0
rfingers 7.12502 0 0
rthumb 32.9699 307.039 0
2857
root -6.09392 13.2596 -28.8131 1240.66 -66.7331 -158.876
lfemur -65.8151 44.9703 -5.58943
ltibia 77.2071 0 0
lfoot -4.81912 -6.10422 0
ltoes -28.711 0 0
rfemur -31.2528 -19.1941 22.5069
rtibia 89.0361 0 0
rfoot -41.3595 -28.483 0
rtoes -13.946 0 0
lowerback 15.6798 5.60624 1.06061
upperback -4.51975 7.98291 1.6644
thorax -13.9738 3.68739 -0.923678
lowerneck -2.54576 9.62974 2.25375
upperneck 9.16399 12.536 2.03988
head 3.41119 6.33341 0.751245
lclavicle 2.14853e-14 -1.14559e-14 0
lhumerus 5.56395 12.362 84.3357
lradius 93.3239 0 0
lwrist -19.0475 0 0
lhand -39.3039 388.051 0
lfingers 7.12502 0 0
lthumb -12.4572 -662.413 0
rclavicle -5.34022e-14 -1.00128e-14 0
rhumerus -59.0877 50.8757 -111.477
rradius 113.602 0 0
rwrist -83.6796 0 0
rhand 7.96456 -386.031 0
rfingers 7.12502 0 0
rthumb 32.9778 307.049 0
2858
root -6.09372 13.2565 -28.8117 1240.6 -66.7614 -158.797
lfemur -65.8391 44.9693 -5.59058
ltibia 77.2553 0 0
lfoot -4.86697 -6.13127 0
ltoes -28.776 0 0
rfemur -31.2568 -19.1919 22.5066
rtibia 89.0645 0 0
rfoot -41.3871 -28.4992 0
rtoes -13.9231 0 0
lowerback 15.6882 5.58521 1.06748
upperback -4.51262 7.95913 1.69128
thorax -13.974 3.67709 -0.891822
lowerneck -2.53288 9.6287 2.23076
upperneck 9.12378 12.54 2.0099
head 3.39523 6.33364 0.743133
lclavicle 1.93907e-14 -1.28654e-14 0
lhumerus 5.5969 12.3684 84.3327
lradius 93.3025 0 0
lwrist -19.052 0 0
lhand -39.291 388.011 0
lfingers 7.12502 0 0
lthumb -12.4557 -662.419 0
rclavicle -5.20184e-14 -9.56071e-15 0
rhumerus -59.0939 50.8902 -111.489
rradius 113.598 0 0
rwrist -83.6776 0 0
rhand 7.95446 -386.026 0
rfingers 7.12502 0 0
rthumb 32.9843 307.057 0
2859
root -6.09359 13.254 -28.8112 1240.6 -66.781 -158.786
lfemur -65.8475 44.9689 -5.59098
ltibia 77.303 0 0
lfoot -4.91508 -6.15846 0
ltoes -28.8379 0 0
rfemur -31.2682 -19.1856 22.5058
rtibia 89.0895 0 0
rfoot -41.4127 -28.5142 0
rtoes -13.8987 0 0
lowerback 15.6935 5.59617 1.08366
upperback -4.51118 7.97703 1.68876
thorax -13.9727 3.68382 -0.908731
lowerneck -2.53452 9.62403 2.22431
upperneck 9.1073 12.5367 1.98678
head 3.39101 6.33101 0.73623
lclavicle 1.74427e-14 -1.41762e-14 0
lhumerus 5.62708 12.3742 84.3299
lradius 93.2841 0 0
lwrist -19.056 0 0
lhand -39.2796 387.977 0
lfingers 7.12502 0 0
lthumb -12.4543 -662.42 0
rclavicle -5.04496e-14 -9.04817e-15 0
rhumerus -59.1009 50.9067 -111.504
rradius 113.595 0 0
rwrist -83.6753 0 0
rhand 7.94378 -386.021 0
rfingers 7.12502 0 0
rthumb 32.9891 307.063 0
2860
root -6.09353 13.2502 -28.8107 1240.67 -66.8001 -158.846
lfemur -65.8511 44.9687 -5.59302
ltibia 77.3498 0 0
lfoot -4.96293 -6.18551 0
ltoes -28.8955 0 0
rfemur -31.2867 -19.1756 22.5045
rtibia 89.1108 0 0
rfoot -41.4357 -28.5277 0
rtoes -13.873 0 0
lowerback 15.6965 5.60088 1.04487
upperback -4.51035 7.97518 1.68676
thorax -13.9789 3.68607 -0.889639
lowerneck -2.54178 9.63205 2.21516
upperneck 9.10343 12.547 1.99802
head 3.38955 6.33632 0.741794
lclavicle 1.56679e-14 -1.53705e-14 0
lhumerus 5.654 12.3793 84.3273
lradius 93.269 0 0
lwrist -19.0592 0 0
lhand -39.2699 387.947 0
lfingers 7.12502 0 0
lthumb -12.4502 -662.421 0
rclavicle -4.87164e-14 -8.48192e-15 0
rhumerus -59.1086 50.9247 -111.519
rradius 113.592 0 0
rwrist -83.6689 0 0
rhand 7.93265 -386.015 0
rfingers 7.12502 0 0
rthumb 32.9921 307.067 0
2861
root -6.093 13.2483 -28.8093 1240.78 -66.8232 -158.976
lfemur -65.8615 44.9679 -5.59892
ltibia 77.395 0 0
lfoot -5.00999 -6.21211 0
ltoes -28.9476 0 0
rfemur -31.3115 -19.162 22.5027
rtibia 89.1281 0 0
rfoot -41.4557 -28.5394 0
rtoes -13.8463 0 0
lowerback 15.7125 5.60557 0.978502
upperback -4.50008 7.96772 1.68615
thorax -13.986 3.68811 -0.853298
lowerneck -2.52387 9.64085 2.21309
upperneck 9.06355 12.5599 2.00202
head 3.37184 6.34287 0.741085
lclavicle 1.40931e-14 -1.64302e-14 0
lhumerus 5.67715 12.3838 84.3252
lradius 93.2577 0 0
lwrist -19.0616 0 0
lhand -39.2621 387.923 0
lfingers 7.12502 0 0
lthumb -12.4437 -662.424 0
rclavicle -4.68393e-14 -7.86866e-15 0
rhumerus -59.1168 50.944 -111.536
rradius 113.59 0 0
rwrist -83.6587 0 0
rhand 7.9212 -386.009 0
rfingers 7.12502 0 0
rthumb 32.9931 307.068 0
2862
root -6.09281 13.2459 -28.8076 1240.81 -66.836 -159.009
lfemur -65.878 44.9668 -5.60832
ltibia 77.4383 0 0
lfoot -5.05573 -6.23797 0
ltoes -28.993 0 0
rfemur -31.3421 -19.1452 22.5006
rtibia 89.1408 0 0
rfoot -41.4721 -28.5491 0
rtoes -13.8189 0 0
lowerback 15.7416 5.61126 0.98848
upperback -4.49998 7.97762 1.68142
thorax -14.0014 3.69088 -0.869691
lowerneck -2.51925 9.65502 2.14446
upperneck 9.04122 12.5767 2.08144
head 3.35236 6.35204 0.775539
lclavicle 1.27448e-14 -1.73375e-14 0
lhumerus 5.69603 12.3874 84.3234
lradius 93.2507 0 0
lwrist -19.0632 0 0
lhand -39.2563 387.905 0
lfingers 7.12502 0 0
lthumb -12.435 -662.427 0
rclavicle -4.48389e-14 -7.21512e-15 0
rhumerus -59.1256 50.9645 -111.554
rradius 113.588 0 0
rwrist -83.6451 0 0
rhand 7.90956 -386.003 0
rfingers 7.12502 0 0
rthumb 32.9935 307.069 0
2863
root -6.09309 13.2413 -28.8043 1240.81 -66.832 -159.015
lfemur -65.9001 44.9653 -5.62087
ltibia 77.4791 0 0
lfoot -5.09962 -6.26278 0
ltoes -29.0304 0 0
rfemur -31.3779 -19.1256 22.498
rtibia 89.1488 0 0
rfoot -41.4845 -28.5563 0
rtoes -13.791 0 0
lowerback 15.781 5.61527 1.03648
upperback -4.50873 7.99179 1.66036
thorax -14.0252 3.69108 -0.927488
lowerneck -2.52849 9.65764 2.15896
upperneck 9.0702 12.5734 2.13704
head 3.36119 6.35284 0.792215
lclavicle 1.16497e-14 -1.80744e-14 0
lhumerus 5.71014 12.3901 84.3221
lradius 93.2482 0 0
lwrist -19.0637 0 0
lhand -39.2526 387.894 0
lfingers 7.12502 0 0
lthumb -12.4244 -662.431 0
rclavicle -4.27357e-14 -6.528e-15 0
rhumerus -59.1347 50.9859 -111.572
rradius 113.588 0 0
rwrist -83.6287 0 0
rhand 7.89786 -385.997 0
rfingers 7.12502 0 0
rthumb 32.9948 307.073 0
2864
root -6.09361 13.2403 -28.8017 1240.87 -66.8391 -159.085
lfemur -65.9271 44.9635 -5.63623
ltibia 77.517 0 0
lfoot -5.14113 -6.28624 0
ltoes -29.0586 0 0
rfemur -31.4183 -19.1035 22.4951
rtibia 89.1515 0 0
rfoot -41.4923 -28.5609 0
rtoes -13.7629 0 0
lowerback 15.8073 5.63907 1.08146
upperback -4.52089 8.02843 1.61117
thorax -14.0407 3.7008 -1.01961
lowerneck -2.53537 9.63129 2.26292
upperneck 9.11245 12.5322 2.11567
head 3.38636 6.33481 0.770401
lclavicle 1.08345e-14 -1.86229e-14 0
lhumerus 5.71897 12.3918 84.3213
lradius 93.2467 0 0
lwrist -19.0622 0 0
lhand -39.2514 387.89 0
lfingers 7.12502 0 0
lthumb -12.4121 -662.435 0
rclavicle -4.05503e-14 -5.81403e-15 0
rhumerus -59.144 51.0078 -111.591
rradius 113.587 0 0
rwrist -83.6098 0 0
rhand 7.88622 -385.991 0
rfingers 7.12502 0 0
rthumb 32.9969 307.079 0
2865
root -6.0945 13.2392 -28.8005 1240.87 -66.9145 -159.073
lfemur -65.9584 44.9613 -5.65404
ltibia 77.5514 0 0
lfoot -5.17974 -6.30807 0
ltoes -29.0765 0 0
rfemur -31.4628 -19.0791 22.492
rtibia 89.1542 0 0
rfoot -41.495 -28.5625 0
rtoes -13.7347 0 0
lowerback 15.8104 5.61117 1.08119
upperback -4.51933 7.99185 1.62026
thorax -14.0424 3.68431 -0.999663
lowerneck -2.57023 9.64276 2.21848
upperneck 9.16262 12.5454 2.14951
head 3.40474 6.34128 0.792438
lclavicle 1.03259e-14 -1.89652e-14 0
lhumerus 5.72203 12.3924 84.321
lradius 93.2425 0 0
lwrist -19.0578 0 0
lhand -39.2512 387.89 0
lfingers 7.12502 0 0
lthumb -12.3983 -662.441 0
rclavicle -3.83033e-14 -5.07991e-15 0
rhumerus -59.1536 51.0302 -111.611
rradius 113.584 0 0
rwrist -83.589 0 0
rhand 7.87477 -385.985 0
rfingers 7.12502 0 0
rthumb 32.9996 307.087 0
